<?xml version="1.0" encoding="utf-8"?>
<!DOCTYPE svg PUBLIC "-//W3C//DTD SVG 20010904//EN" "http://www.w3.org/TR/2001/REC-SVG-20010904/DTD/svg10.dtd">
<svg height="1024.000000pt" preserveAspectRatio="xMidYMid meet" version="1.0" viewBox="0 0 1024.000000 1024.000000" width="1024.000000pt" xmlns="http://www.w3.org/2000/svg">
<g fill="#22c55e" stroke="#22c55e" transform="translate(0.000000,1024.000000) scale(0.100000,-0.100000)">
<path d="M2146 6464 c-10 -27 -6 -110 6 -122 7 -7 21 -12 33 -11 17 1 16 2 -5 8 -23 6 -25 11 -25 66 l0 60 75 -2 c67 -1 70 0 30 7 -72 14 -107 12 -114 -6z"/>
<path d="M2323 6453 c9 -2 23 -2 30 0 6 3 -1 5 -18 5 -16 0 -22 -2 -12 -5z"/>
<path d="M2437 6426 c115 -38 230 -107 360 -220 83 -71 202 -275 247 -421 27 -89 35 -86 10 3 -46 165 -184 374 -314 479 -108 87 -298 184 -358 183 -9 -1 15 -11 55 -24z"/>
<path d="M2233 6323 c9 -2 25 -2 35 0 9 3 1 5 -18 5 -19 0 -27 -2 -17 -5z"/>
<path d="M2372 6291 c215 -70 356 -192 470 -406 43 -80 52 -81 12 -2 -82 161 -194 278 -345 360 -64 36 -179 77 -208 77 -9 -1 23 -14 71 -29z"/>
<path d="M1160 6291 c-41 -13 -84 -38 -107 -63 -26 -28 -63 -105 -62 -133 0 -11 8 4 18 34 33 94 76 133 175 157 28 7 40 12 26 12 -14 0 -36 -3 -50 -7z"/>
<path d="M1982 6078 c-2 -205 -2 -208 21 -222 26 -17 135 -46 168 -45 13 0 -7 7 -46 16 -38 8 -84 21 -102 28 l-33 14 -3 208 -2 208 -3 -207z"/>
<path d="M2152 6115 c0 -16 2 -22 5 -12 2 9 2 23 0 30 -3 6 -5 -1 -5 -18z"/>
<path d="M2228 6133 c12 -2 32 -2 45 0 12 2 2 4 -23 4 -25 0 -35 -2 -22 -4z"/>
<path d="M2352 6106 c31 -13 78 -36 104 -51 67 -39 172 -149 217 -225 20 -36 37 -60 37 -54 0 27 -102 164 -160 217 -62 55 -204 137 -239 137 -9 0 9 -11 41 -24z"/>
<path d="M984 5910 c0 -85 2 -120 3 -77 2 42 2 112 0 155 -1 42 -3 7 -3 -78z"/>
<path d="M2153 6020 c2 -8 14 -16 28 -17 19 -1 20 -1 4 4 -11 3 -24 10 -28 17 -6 7 -7 6 -4 -4z"/>
<path d="M2250 5985 c46 -18 64 -17 25 0 -16 8 -37 14 -45 14 -8 0 1 -7 20 -14z"/>
<path d="M2366 5934 c78 -46 147 -115 181 -180 15 -29 29 -51 31 -49 6 5 -28 67 -65 117 -32 44 -170 148 -196 148 -6 0 16 -16 49 -36z"/>
<path d="M2232 5796 c83 -30 141 -96 185 -210 13 -34 21 -47 18 -31 -10 46 -49 126 -81 164 -35 42 -111 91 -138 91 -14 -1 -8 -6 16 -14z"/>
<path d="M2881 5810 c0 -3 8 -30 19 -60 14 -38 18 -44 14 -20 -5 29 -33 96 -33 80z"/>
<path d="M2711 5759 c-1 -4 6 -26 14 -49 20 -58 19 -106 -2 -119 -17 -10 -17 -10 -1 -11 21 0 33 38 25 83 -5 31 -34 109 -36 96z"/>
<path d="M1511 5724 c0 -11 3 -14 6 -6 3 7 2 16 -1 19 -3 4 -6 -2 -5 -13z"/>
<path d="M1640 5737 c15 -16 202 -143 250 -169 30 -16 46 -23 36 -16 -259 173 -296 197 -286 185z"/>
<path d="M3615 5717 c-111 -37 -174 -91 -206 -175 -35 -94 -13 -197 58 -264 33 -31 118 -71 256 -119 53 -18 109 -43 122 -54 33 -27 45 -72 31 -114 -17 -51 -55 -74 -129 -79 -86 -5 -143 24 -176 91 l-23 48 -92 -3 -91 -3 3 -34 c12 -147 167 -253 370 -253 219 1 343 115 330 303 -10 129 -74 188 -293 271 -151 57 -195 86 -195 124 0 72 74 121 169 112 61 -6 97 -28 118 -73 15 -32 18 -34 82 -37 99 -5 111 -1 111 30 -1 74 -76 168 -169 210 -67 31 -209 41 -276 19z"/>
<path d="M1502 5670 c0 -19 2 -27 5 -17 2 9 2 25 0 35 -3 9 -5 1 -5 -18z"/>
<path d="M3072 5675 c0 -16 2 -22 5 -12 2 9 2 23 0 30 -3 6 -5 -1 -5 -18z"/>
<path d="M2581 5680 c0 -8 4 -24 9 -35 5 -13 9 -14 9 -5 0 8 -4 24 -9 35 -5 13 -9 14 -9 5z"/>
<path d="M2922 5665 c0 -16 2 -22 5 -12 2 9 2 23 0 30 -3 6 -5 -1 -5 -18z"/>
<path d="M3080 5622 c0 -29 -21 -42 -65 -42 -42 0 -69 14 -78 40 -4 12 -6 12 -6 -2 -2 -42 109 -67 143 -32 15 14 23 54 11 54 -3 0 -5 -8 -5 -18z"/>
<path d="M4190 5545 l0 -85 -45 0 -46 0 3 -72 3 -73 43 -3 42 -3 0 -188 c0 -220 11 -276 63 -315 43 -33 107 -48 192 -44 l70 3 0 73 0 73 -58 3 c-91 4 -91 5 -95 216 l-3 179 73 3 73 3 3 73 3 72 -76 0 -75 0 0 85 0 85 -85 0 -85 0 0 -85z"/>
<path d="M2600 5606 c0 -8 4 -17 9 -20 5 -4 7 3 4 14 -6 23 -13 26 -13 6z"/>
<path d="M2653 5573 c9 -2 25 -2 35 0 9 3 1 5 -18 5 -19 0 -27 -2 -17 -5z"/>
<path d="M1990 5516 c0 -3 14 -12 30 -21 17 -9 30 -13 30 -11 0 3 -13 12 -30 21 -16 9 -30 13 -30 11z"/>
<path d="M2442 5495 c0 -16 2 -22 5 -12 2 9 2 23 0 30 -3 6 -5 -1 -5 -18z"/>
<path d="M2073 5468 c10 -7 44 -30 76 -50 105 -68 131 -105 116 -165 -6 -26 -51 -75 -90 -101 -11 -7 -6 -6 10 2 50 24 95 83 95 126 0 53 -58 111 -175 174 -27 15 -42 21 -32 14z"/>
<path d="M5240 5456 c-157 -42 -255 -201 -236 -384 18 -173 110 -279 270 -312 76 -16 148 -6 222 29 69 33 95 59 123 121 34 75 32 78 -56 75 -43 -2 -81 -3 -84 -4 -3 -1 -11 -12 -17 -27 -23 -48 -125 -70 -196 -40 -40 17 -75 64 -83 111 l-6 35 243 0 243 0 -6 79 c-16 235 -201 376 -417 317z m177 -146 c31 -18 53 -50 67 -97 l7 -23 -155 0 c-174 0 -176 1 -135 67 42 67 149 94 216 53z"/>
<path d="M5927 5459 c-101 -24 -171 -88 -198 -181 l-8 -28 84 0 c83 0 85 1 99 29 27 52 127 72 182 37 27 -18 54 -71 54 -106 0 -18 -6 -20 -65 -20 -161 0 -302 -54 -342 -130 -27 -50 -31 -132 -9 -183 27 -65 132 -127 213 -127 54 0 115 24 158 62 l45 40 0 -41 0 -41 85 0 85 0 0 240 c0 138 -5 261 -11 291 -15 69 -75 131 -150 153 -57 17 -161 19 -222 5z m205 -434 c-5 -58 -31 -97 -82 -123 -49 -25 -94 -24 -136 3 -19 12 -24 24 -24 56 0 71 68 109 190 106 l55 -2 -3 -40z"/>
<path d="M6706 5455 c-21 -7 -56 -27 -77 -45 l-39 -31 0 41 0 40 -80 0 -80 0 0 -345 0 -345 85 0 85 0 0 220 c0 240 5 269 55 308 33 26 100 29 133 6 44 -30 47 -49 52 -294 l5 -235 82 -3 81 -3 4 228 c3 215 4 230 25 264 55 88 176 76 203 -19 5 -20 10 -135 10 -254 l0 -218 86 0 85 0 -3 268 c-3 254 -4 269 -25 309 -75 139 -285 163 -386 44 l-25 -30 -44 43 c-63 63 -146 82 -232 51z"/>
<path d="M7757 5460 c-102 -26 -192 -98 -236 -190 -23 -49 -26 -67 -26 -160 0 -92 3 -112 26 -160 125 -264 530 -259 652 8 17 38 22 67 22 147 0 87 -3 107 -26 156 -59 124 -169 199 -302 205 -40 2 -89 -1 -110 -6z m180 -171 c51 -32 75 -81 81 -164 8 -130 -48 -205 -159 -213 -113 -8 -178 53 -187 178 -8 114 30 185 115 216 46 17 105 10 150 -17z"/>
<path d="M8907 5459 c-99 -23 -172 -90 -201 -186 -7 -23 -6 -23 78 -23 84 0 86 1 100 29 27 52 127 72 182 37 28 -19 57 -77 52 -104 -3 -14 -21 -18 -97 -24 -231 -18 -331 -87 -331 -226 0 -67 18 -109 63 -149 36 -32 118 -63 164 -63 58 0 117 24 159 64 39 38 43 40 48 21 3 -11 6 -30 6 -42 0 -22 4 -23 81 -23 l80 0 -3 263 c-3 247 -4 264 -25 303 -59 110 -202 159 -356 123z m208 -399 c4 -6 3 -30 0 -53 -10 -57 -65 -112 -122 -122 -59 -10 -117 18 -121 59 -8 64 22 97 103 117 46 11 133 10 140 -1z"/>
<path d="M4600 5115 l0 -345 85 0 c47 0 85 1 86 3 1 1 4 92 8 202 5 182 8 203 28 235 30 47 57 62 128 69 l60 6 3 88 3 87 -46 0 c-64 0 -105 -20 -154 -76 l-43 -49 6 47 c9 75 5 78 -85 78 l-79 0 0 -345z"/>
<path d="M8280 5115 l0 -345 84 0 84 0 4 193 c3 175 6 196 26 234 29 56 63 77 137 83 l60 5 3 88 3 87 -47 0 c-61 0 -125 -31 -155 -75 -13 -19 -28 -35 -32 -35 -4 0 -6 24 -5 53 l3 52 -82 3 -83 3 0 -346z"/>
<path d="M2517 5413 c18 -2 50 -2 70 0 21 2 7 4 -32 4 -38 0 -55 -2 -38 -4z"/>
<path d="M2864 5255 c0 -77 2 -107 3 -67 2 40 2 103 0 140 -2 37 -3 4 -3 -73z"/>
<path d="M991 5294 c0 -11 3 -14 6 -6 3 7 2 16 -1 19 -3 4 -6 -2 -5 -13z"/>
<path d="M992 4824 c-1 -348 1 -454 11 -466 15 -19 58 -48 72 -48 5 0 -3 8 -20 18 -57 35 -55 15 -58 498 l-2 449 -3 -451z"/>
<path d="M2095 5113 c-65 -33 -417 -243 -430 -256 -14 -14 -12 -13 195 110 102 61 209 122 238 137 28 14 52 29 52 31 0 7 1 7 -55 -22z"/>
<path d="M2861 5044 c0 -11 3 -14 6 -6 3 7 2 16 -1 19 -3 4 -6 -2 -5 -13z"/>
<path d="M2863 4985 c0 -22 2 -30 4 -17 2 12 2 30 0 40 -3 9 -5 -1 -4 -23z"/>
<path d="M1511 4859 c0 -15 7 -33 17 -40 15 -12 16 -12 5 1 -6 8 -13 26 -16 40 l-4 25 -2 -26z"/>
<path d="M1637 4844 c-3 -3 -23 -12 -44 -19 -21 -8 -30 -14 -20 -15 18 0 77 27 77 35 0 7 -5 6 -13 -1z"/>
<path d="M2278 4813 c18 -2 45 -2 60 0 15 2 0 4 -33 4 -33 0 -45 -2 -27 -4z"/>
<path d="M2113 4789 c-72 -23 -157 -83 -295 -210 -149 -138 -210 -187 -265 -216 -28 -15 -50 -29 -48 -31 6 -7 83 38 136 79 30 24 104 88 164 144 198 182 247 214 368 240 38 8 50 14 32 14 -16 0 -58 -9 -92 -20z"/>
<path d="M2398 4803 c6 -2 18 -2 25 0 6 3 1 5 -13 5 -14 0 -19 -2 -12 -5z"/>
<path d="M2501 4776 c10 -9 69 -36 69 -32 0 6 -55 36 -66 36 -4 0 -5 -2 -3 -4z"/>
<path d="M2518 4713 c12 -2 30 -2 40 0 9 3 -1 5 -23 4 -22 0 -30 -2 -17 -4z"/>
<path d="M2375 4700 c-34 -6 -35 -7 -10 -8 17 0 50 3 75 7 40 8 41 8 10 8 -19 0 -53 -3 -75 -7z"/>
<path d="M2265 4680 c-14 -7 -8 -8 20 -3 22 3 42 7 44 9 9 8 -45 2 -64 -6z"/>
<path d="M2210 4660 c-8 -5 -10 -10 -5 -10 6 0 17 5 25 10 8 5 11 10 5 10 -5 0 -17 -5 -25 -10z"/>
<path d="M2114 4611 c-33 -22 -115 -90 -184 -151 -169 -152 -260 -211 -403 -265 -26 -10 -46 -20 -43 -22 7 -8 152 57 222 99 38 23 113 80 167 127 184 162 222 193 272 222 28 16 45 29 39 29 -7 0 -38 -18 -70 -39z"/>
<path d="M2847 4480 c-22 -111 -135 -249 -237 -288 -30 -11 -48 -21 -40 -21 55 -1 188 104 236 185 30 50 57 129 52 146 -3 7 -8 -3 -11 -22z"/>
<path d="M1388 4303 c6 -2 18 -2 25 0 6 3 1 5 -13 5 -14 0 -19 -2 -12 -5z"/>
<path d="M1128 4293 c6 -2 18 -2 25 0 6 3 1 5 -13 5 -14 0 -19 -2 -12 -5z"/>
<path d="M1308 4293 c12 -2 30 -2 40 0 9 3 -1 5 -23 4 -22 0 -30 -2 -17 -4z"/>
<path d="M1193 4283 c15 -2 37 -2 50 0 12 2 0 4 -28 4 -27 0 -38 -2 -22 -4z"/>
<path d="M2518 4163 c6 -2 18 -2 25 0 6 3 1 5 -13 5 -14 0 -19 -2 -12 -5z"/>
<path d="M1553 4153 c15 -2 39 -2 55 0 15 2 2 4 -28 4 -30 0 -43 -2 -27 -4z"/>
<path d="M1673 4153 c15 -2 39 -2 55 0 15 2 2 4 -28 4 -30 0 -43 -2 -27 -4z"/>
</g>
</svg>